<mxfile host="app.diagrams.net" modified="2022-02-14T09:21:14.105Z" agent="5.0 (X11; Linux x86_64) AppleWebKit/537.36 (KHTML, like Gecko) Chrome/98.0.4758.80 Safari/537.36" etag="W8mF6EgBzkHdkkYOZb15" version="16.5.6" type="github">
  <diagram id="YD-U70I8awbXt-79FAHw" name="Page-1">
    <mxGraphModel dx="1003" dy="1603" grid="1" gridSize="10" guides="1" tooltips="1" connect="1" arrows="1" fold="1" page="1" pageScale="1" pageWidth="1654" pageHeight="2336" math="0" shadow="0">
      <root>
        <mxCell id="0" />
        <mxCell id="1" parent="0" />
        <mxCell id="c6nmPjCU_6RG-IFTGdHf-1" value="1&lt;span style=&quot;white-space: pre&quot;&gt;	&lt;/span&gt;&lt;span style=&quot;white-space: pre&quot;&gt;	&lt;/span&gt;0" style="shape=trapezoid;perimeter=trapezoidPerimeter;whiteSpace=wrap;html=1;fixedSize=1;direction=west;" vertex="1" parent="1">
          <mxGeometry x="900" y="870" width="120" height="60" as="geometry" />
        </mxCell>
        <mxCell id="c6nmPjCU_6RG-IFTGdHf-3" value="" style="edgeStyle=orthogonalEdgeStyle;rounded=0;orthogonalLoop=1;jettySize=auto;html=1;" edge="1" parent="1" source="c6nmPjCU_6RG-IFTGdHf-2" target="c6nmPjCU_6RG-IFTGdHf-1">
          <mxGeometry relative="1" as="geometry" />
        </mxCell>
        <mxCell id="c6nmPjCU_6RG-IFTGdHf-2" value="Oper[2] == 1&#39;b0" style="text;html=1;align=center;verticalAlign=middle;resizable=0;points=[];autosize=1;strokeColor=none;fillColor=none;" vertex="1" parent="1">
          <mxGeometry x="740" y="890" width="100" height="20" as="geometry" />
        </mxCell>
        <mxCell id="c6nmPjCU_6RG-IFTGdHf-4" value="" style="endArrow=classic;html=1;rounded=0;exitX=0.5;exitY=0;exitDx=0;exitDy=0;" edge="1" parent="1" source="c6nmPjCU_6RG-IFTGdHf-1">
          <mxGeometry width="50" height="50" relative="1" as="geometry">
            <mxPoint x="950" y="1010" as="sourcePoint" />
            <mxPoint x="960" y="970" as="targetPoint" />
          </mxGeometry>
        </mxCell>
        <mxCell id="c6nmPjCU_6RG-IFTGdHf-15" value="" style="edgeStyle=orthogonalEdgeStyle;rounded=0;orthogonalLoop=1;jettySize=auto;html=1;entryX=0.25;entryY=1;entryDx=0;entryDy=0;" edge="1" parent="1" source="c6nmPjCU_6RG-IFTGdHf-5" target="c6nmPjCU_6RG-IFTGdHf-1">
          <mxGeometry relative="1" as="geometry">
            <Array as="points">
              <mxPoint x="990" y="840" />
              <mxPoint x="990" y="840" />
            </Array>
          </mxGeometry>
        </mxCell>
        <mxCell id="c6nmPjCU_6RG-IFTGdHf-5" value="1&lt;span style=&quot;white-space: pre&quot;&gt;	&lt;/span&gt;&lt;span style=&quot;white-space: pre&quot;&gt;	&lt;/span&gt;0" style="shape=trapezoid;perimeter=trapezoidPerimeter;whiteSpace=wrap;html=1;fixedSize=1;direction=west;" vertex="1" parent="1">
          <mxGeometry x="920" y="750" width="120" height="60" as="geometry" />
        </mxCell>
        <mxCell id="c6nmPjCU_6RG-IFTGdHf-7" value="" style="edgeStyle=orthogonalEdgeStyle;rounded=0;orthogonalLoop=1;jettySize=auto;html=1;" edge="1" parent="1" source="c6nmPjCU_6RG-IFTGdHf-6" target="c6nmPjCU_6RG-IFTGdHf-5">
          <mxGeometry relative="1" as="geometry" />
        </mxCell>
        <mxCell id="c6nmPjCU_6RG-IFTGdHf-6" value="Oper == 3&#39;b100" style="text;html=1;align=center;verticalAlign=middle;resizable=0;points=[];autosize=1;strokeColor=none;fillColor=none;" vertex="1" parent="1">
          <mxGeometry x="790" y="770" width="100" height="20" as="geometry" />
        </mxCell>
        <mxCell id="c6nmPjCU_6RG-IFTGdHf-8" value="1&lt;span style=&quot;white-space: pre&quot;&gt;	&lt;/span&gt;&lt;span style=&quot;white-space: pre&quot;&gt;	&lt;/span&gt;0" style="shape=trapezoid;perimeter=trapezoidPerimeter;whiteSpace=wrap;html=1;fixedSize=1;direction=west;" vertex="1" parent="1">
          <mxGeometry x="950" y="650" width="120" height="60" as="geometry" />
        </mxCell>
        <mxCell id="c6nmPjCU_6RG-IFTGdHf-9" value="" style="edgeStyle=orthogonalEdgeStyle;rounded=0;orthogonalLoop=1;jettySize=auto;html=1;" edge="1" parent="1" source="c6nmPjCU_6RG-IFTGdHf-10" target="c6nmPjCU_6RG-IFTGdHf-8">
          <mxGeometry relative="1" as="geometry" />
        </mxCell>
        <mxCell id="c6nmPjCU_6RG-IFTGdHf-10" value="Oper == 3&#39;b101" style="text;html=1;align=center;verticalAlign=middle;resizable=0;points=[];autosize=1;strokeColor=none;fillColor=none;" vertex="1" parent="1">
          <mxGeometry x="790" y="670" width="100" height="20" as="geometry" />
        </mxCell>
        <mxCell id="c6nmPjCU_6RG-IFTGdHf-11" value="" style="endArrow=classic;html=1;rounded=0;exitX=0.5;exitY=0;exitDx=0;exitDy=0;" edge="1" parent="1" source="c6nmPjCU_6RG-IFTGdHf-8">
          <mxGeometry width="50" height="50" relative="1" as="geometry">
            <mxPoint x="1000" y="790" as="sourcePoint" />
            <mxPoint x="1010" y="750" as="targetPoint" />
          </mxGeometry>
        </mxCell>
        <mxCell id="c6nmPjCU_6RG-IFTGdHf-19" value="" style="edgeStyle=orthogonalEdgeStyle;rounded=0;orthogonalLoop=1;jettySize=auto;html=1;" edge="1" parent="1" source="c6nmPjCU_6RG-IFTGdHf-12">
          <mxGeometry relative="1" as="geometry">
            <mxPoint x="1032.5" y="650" as="targetPoint" />
            <Array as="points">
              <mxPoint x="1032.5" y="640" />
              <mxPoint x="1032.5" y="640" />
            </Array>
          </mxGeometry>
        </mxCell>
        <mxCell id="c6nmPjCU_6RG-IFTGdHf-12" value="1&lt;span style=&quot;white-space: pre&quot;&gt;	&lt;/span&gt;&lt;span style=&quot;white-space: pre&quot;&gt;	&lt;/span&gt;0" style="shape=trapezoid;perimeter=trapezoidPerimeter;whiteSpace=wrap;html=1;fixedSize=1;direction=west;" vertex="1" parent="1">
          <mxGeometry x="972.5" y="550" width="120" height="60" as="geometry" />
        </mxCell>
        <mxCell id="c6nmPjCU_6RG-IFTGdHf-13" value="" style="edgeStyle=orthogonalEdgeStyle;rounded=0;orthogonalLoop=1;jettySize=auto;html=1;" edge="1" parent="1" source="c6nmPjCU_6RG-IFTGdHf-14" target="c6nmPjCU_6RG-IFTGdHf-12">
          <mxGeometry relative="1" as="geometry" />
        </mxCell>
        <mxCell id="c6nmPjCU_6RG-IFTGdHf-14" value="Oper == 3&#39;b110" style="text;html=1;align=center;verticalAlign=middle;resizable=0;points=[];autosize=1;strokeColor=none;fillColor=none;" vertex="1" parent="1">
          <mxGeometry x="842.5" y="570" width="100" height="20" as="geometry" />
        </mxCell>
        <mxCell id="c6nmPjCU_6RG-IFTGdHf-16" value="1&lt;span style=&quot;white-space: pre&quot;&gt;	&lt;/span&gt;&lt;span style=&quot;white-space: pre&quot;&gt;	&lt;/span&gt;0" style="shape=trapezoid;perimeter=trapezoidPerimeter;whiteSpace=wrap;html=1;fixedSize=1;direction=west;" vertex="1" parent="1">
          <mxGeometry x="1000" y="440" width="120" height="60" as="geometry" />
        </mxCell>
        <mxCell id="c6nmPjCU_6RG-IFTGdHf-17" value="" style="edgeStyle=orthogonalEdgeStyle;rounded=0;orthogonalLoop=1;jettySize=auto;html=1;" edge="1" parent="1" source="c6nmPjCU_6RG-IFTGdHf-18" target="c6nmPjCU_6RG-IFTGdHf-16">
          <mxGeometry relative="1" as="geometry" />
        </mxCell>
        <mxCell id="c6nmPjCU_6RG-IFTGdHf-18" value="Oper == 3&#39;b111" style="text;html=1;align=center;verticalAlign=middle;resizable=0;points=[];autosize=1;strokeColor=none;fillColor=none;" vertex="1" parent="1">
          <mxGeometry x="855" y="460" width="100" height="20" as="geometry" />
        </mxCell>
        <mxCell id="c6nmPjCU_6RG-IFTGdHf-21" value="" style="edgeStyle=orthogonalEdgeStyle;rounded=0;orthogonalLoop=1;jettySize=auto;html=1;entryX=0.25;entryY=1;entryDx=0;entryDy=0;" edge="1" parent="1" source="c6nmPjCU_6RG-IFTGdHf-20">
          <mxGeometry relative="1" as="geometry">
            <mxPoint x="935" y="870" as="targetPoint" />
          </mxGeometry>
        </mxCell>
        <mxCell id="c6nmPjCU_6RG-IFTGdHf-20" value="Shifter_out" style="text;html=1;align=center;verticalAlign=middle;resizable=0;points=[];autosize=1;strokeColor=none;fillColor=none;" vertex="1" parent="1">
          <mxGeometry x="900" y="820" width="70" height="20" as="geometry" />
        </mxCell>
        <mxCell id="c6nmPjCU_6RG-IFTGdHf-22" value="" style="edgeStyle=orthogonalEdgeStyle;rounded=0;orthogonalLoop=1;jettySize=auto;html=1;entryX=0.25;entryY=1;entryDx=0;entryDy=0;" edge="1" parent="1">
          <mxGeometry relative="1" as="geometry">
            <mxPoint x="954.6" y="750" as="targetPoint" />
            <mxPoint x="954.6" y="730" as="sourcePoint" />
          </mxGeometry>
        </mxCell>
        <mxCell id="c6nmPjCU_6RG-IFTGdHf-23" value="cla_16b_out" style="text;html=1;align=center;verticalAlign=middle;resizable=0;points=[];autosize=1;strokeColor=none;fillColor=none;" vertex="1" parent="1">
          <mxGeometry x="910" y="710" width="80" height="20" as="geometry" />
        </mxCell>
        <mxCell id="c6nmPjCU_6RG-IFTGdHf-27" value="" style="edgeStyle=orthogonalEdgeStyle;rounded=0;orthogonalLoop=1;jettySize=auto;html=1;exitX=1;exitY=0.5;exitDx=0;exitDy=0;" edge="1" parent="1" source="c6nmPjCU_6RG-IFTGdHf-69">
          <mxGeometry relative="1" as="geometry">
            <mxPoint x="1032.2599999999998" y="440" as="targetPoint" />
            <mxPoint x="1032.12" y="420" as="sourcePoint" />
            <Array as="points">
              <mxPoint x="1032" y="410" />
              <mxPoint x="1032" y="440" />
            </Array>
          </mxGeometry>
        </mxCell>
        <mxCell id="c6nmPjCU_6RG-IFTGdHf-28" value="" style="edgeStyle=orthogonalEdgeStyle;rounded=0;orthogonalLoop=1;jettySize=auto;html=1;exitX=1;exitY=0.5;exitDx=0;exitDy=0;" edge="1" parent="1" source="c6nmPjCU_6RG-IFTGdHf-68">
          <mxGeometry relative="1" as="geometry">
            <mxPoint x="980" y="650.0000000000001" as="targetPoint" />
            <mxPoint x="979.8600000000001" y="630.0000000000001" as="sourcePoint" />
            <Array as="points">
              <mxPoint x="980" y="630" />
            </Array>
          </mxGeometry>
        </mxCell>
        <mxCell id="c6nmPjCU_6RG-IFTGdHf-29" value="" style="edgeStyle=orthogonalEdgeStyle;rounded=0;orthogonalLoop=1;jettySize=auto;html=1;exitX=1;exitY=0.5;exitDx=0;exitDy=0;" edge="1" parent="1" source="c6nmPjCU_6RG-IFTGdHf-67">
          <mxGeometry relative="1" as="geometry">
            <mxPoint x="1000" y="550" as="targetPoint" />
            <mxPoint x="1009.55" y="530.0000000000001" as="sourcePoint" />
            <Array as="points">
              <mxPoint x="1000" y="520" />
              <mxPoint x="1000" y="550" />
            </Array>
          </mxGeometry>
        </mxCell>
        <mxCell id="c6nmPjCU_6RG-IFTGdHf-32" value="" style="edgeStyle=orthogonalEdgeStyle;rounded=0;orthogonalLoop=1;jettySize=auto;html=1;exitX=0.5;exitY=0;exitDx=0;exitDy=0;" edge="1" parent="1" source="c6nmPjCU_6RG-IFTGdHf-16">
          <mxGeometry relative="1" as="geometry">
            <mxPoint x="1060" y="503" as="sourcePoint" />
            <mxPoint x="1060" y="550" as="targetPoint" />
            <Array as="points" />
          </mxGeometry>
        </mxCell>
        <mxCell id="c6nmPjCU_6RG-IFTGdHf-33" value="InAA" style="text;html=1;align=center;verticalAlign=middle;resizable=0;points=[];autosize=1;strokeColor=none;fillColor=none;" vertex="1" parent="1">
          <mxGeometry x="1080" y="400" width="40" height="20" as="geometry" />
        </mxCell>
        <mxCell id="c6nmPjCU_6RG-IFTGdHf-35" value="" style="edgeStyle=orthogonalEdgeStyle;rounded=0;orthogonalLoop=1;jettySize=auto;html=1;" edge="1" parent="1">
          <mxGeometry relative="1" as="geometry">
            <mxPoint x="1099.9099999999999" y="439.9999999999999" as="targetPoint" />
            <mxPoint x="1099.77" y="420" as="sourcePoint" />
          </mxGeometry>
        </mxCell>
        <mxCell id="c6nmPjCU_6RG-IFTGdHf-150" value="" style="edgeStyle=orthogonalEdgeStyle;rounded=0;orthogonalLoop=1;jettySize=auto;html=1;strokeWidth=1;" edge="1" parent="1" source="c6nmPjCU_6RG-IFTGdHf-36" target="c6nmPjCU_6RG-IFTGdHf-145">
          <mxGeometry relative="1" as="geometry" />
        </mxCell>
        <mxCell id="c6nmPjCU_6RG-IFTGdHf-36" value="Out" style="text;html=1;align=center;verticalAlign=middle;resizable=0;points=[];autosize=1;strokeColor=none;fillColor=none;" vertex="1" parent="1">
          <mxGeometry x="945" y="970" width="30" height="20" as="geometry" />
        </mxCell>
        <mxCell id="c6nmPjCU_6RG-IFTGdHf-37" value="Shifter" style="whiteSpace=wrap;html=1;" vertex="1" parent="1">
          <mxGeometry x="620" y="800" width="120" height="60" as="geometry" />
        </mxCell>
        <mxCell id="c6nmPjCU_6RG-IFTGdHf-38" value="" style="endArrow=classic;html=1;rounded=0;exitX=1;exitY=0.5;exitDx=0;exitDy=0;" edge="1" parent="1" source="c6nmPjCU_6RG-IFTGdHf-37" target="c6nmPjCU_6RG-IFTGdHf-20">
          <mxGeometry width="50" height="50" relative="1" as="geometry">
            <mxPoint x="780" y="870" as="sourcePoint" />
            <mxPoint x="830" y="820" as="targetPoint" />
          </mxGeometry>
        </mxCell>
        <mxCell id="c6nmPjCU_6RG-IFTGdHf-39" value="cla_16b" style="whiteSpace=wrap;html=1;" vertex="1" parent="1">
          <mxGeometry x="630" y="690" width="120" height="60" as="geometry" />
        </mxCell>
        <mxCell id="c6nmPjCU_6RG-IFTGdHf-40" value="" style="endArrow=classic;html=1;rounded=0;exitX=1;exitY=0.5;exitDx=0;exitDy=0;" edge="1" parent="1" source="c6nmPjCU_6RG-IFTGdHf-39">
          <mxGeometry width="50" height="50" relative="1" as="geometry">
            <mxPoint x="790" y="760" as="sourcePoint" />
            <mxPoint x="910" y="720" as="targetPoint" />
          </mxGeometry>
        </mxCell>
        <mxCell id="c6nmPjCU_6RG-IFTGdHf-43" value="" style="edgeStyle=orthogonalEdgeStyle;rounded=0;orthogonalLoop=1;jettySize=auto;html=1;" edge="1" parent="1" source="c6nmPjCU_6RG-IFTGdHf-42" target="c6nmPjCU_6RG-IFTGdHf-41">
          <mxGeometry relative="1" as="geometry" />
        </mxCell>
        <mxCell id="c6nmPjCU_6RG-IFTGdHf-41" value="InAA" style="text;html=1;align=center;verticalAlign=middle;resizable=0;points=[];autosize=1;strokeColor=none;fillColor=none;" vertex="1" parent="1">
          <mxGeometry x="550" y="340" width="40" height="20" as="geometry" />
        </mxCell>
        <mxCell id="c6nmPjCU_6RG-IFTGdHf-42" value="1&lt;span style=&quot;white-space: pre&quot;&gt;	&lt;/span&gt;&lt;span style=&quot;white-space: pre&quot;&gt;	&lt;/span&gt;0" style="shape=trapezoid;perimeter=trapezoidPerimeter;whiteSpace=wrap;html=1;fixedSize=1;direction=west;" vertex="1" parent="1">
          <mxGeometry x="510" y="260" width="120" height="60" as="geometry" />
        </mxCell>
        <mxCell id="c6nmPjCU_6RG-IFTGdHf-45" value="" style="edgeStyle=orthogonalEdgeStyle;rounded=0;orthogonalLoop=1;jettySize=auto;html=1;" edge="1" parent="1" source="c6nmPjCU_6RG-IFTGdHf-47" target="c6nmPjCU_6RG-IFTGdHf-46">
          <mxGeometry relative="1" as="geometry" />
        </mxCell>
        <mxCell id="c6nmPjCU_6RG-IFTGdHf-46" value="InBB" style="text;html=1;align=center;verticalAlign=middle;resizable=0;points=[];autosize=1;strokeColor=none;fillColor=none;" vertex="1" parent="1">
          <mxGeometry x="760" y="340" width="40" height="20" as="geometry" />
        </mxCell>
        <mxCell id="c6nmPjCU_6RG-IFTGdHf-47" value="1&lt;span style=&quot;white-space: pre&quot;&gt;	&lt;/span&gt;&lt;span style=&quot;white-space: pre&quot;&gt;	&lt;/span&gt;0" style="shape=trapezoid;perimeter=trapezoidPerimeter;whiteSpace=wrap;html=1;fixedSize=1;direction=west;" vertex="1" parent="1">
          <mxGeometry x="720" y="260" width="120" height="60" as="geometry" />
        </mxCell>
        <mxCell id="c6nmPjCU_6RG-IFTGdHf-52" value="" style="edgeStyle=orthogonalEdgeStyle;rounded=0;orthogonalLoop=1;jettySize=auto;html=1;" edge="1" parent="1" source="c6nmPjCU_6RG-IFTGdHf-50" target="c6nmPjCU_6RG-IFTGdHf-42">
          <mxGeometry relative="1" as="geometry" />
        </mxCell>
        <mxCell id="c6nmPjCU_6RG-IFTGdHf-50" value="invA" style="text;html=1;align=center;verticalAlign=middle;resizable=0;points=[];autosize=1;strokeColor=none;fillColor=none;" vertex="1" parent="1">
          <mxGeometry x="440" y="280" width="40" height="20" as="geometry" />
        </mxCell>
        <mxCell id="c6nmPjCU_6RG-IFTGdHf-56" value="" style="edgeStyle=orthogonalEdgeStyle;rounded=0;orthogonalLoop=1;jettySize=auto;html=1;" edge="1" parent="1" source="c6nmPjCU_6RG-IFTGdHf-55" target="c6nmPjCU_6RG-IFTGdHf-47">
          <mxGeometry relative="1" as="geometry" />
        </mxCell>
        <mxCell id="c6nmPjCU_6RG-IFTGdHf-55" value="invB" style="text;html=1;align=center;verticalAlign=middle;resizable=0;points=[];autosize=1;strokeColor=none;fillColor=none;" vertex="1" parent="1">
          <mxGeometry x="650" y="280" width="40" height="20" as="geometry" />
        </mxCell>
        <mxCell id="c6nmPjCU_6RG-IFTGdHf-58" value="" style="edgeStyle=orthogonalEdgeStyle;rounded=0;orthogonalLoop=1;jettySize=auto;html=1;" edge="1" parent="1" source="c6nmPjCU_6RG-IFTGdHf-57" target="c6nmPjCU_6RG-IFTGdHf-42">
          <mxGeometry relative="1" as="geometry">
            <Array as="points">
              <mxPoint x="540" y="240" />
              <mxPoint x="540" y="240" />
            </Array>
          </mxGeometry>
        </mxCell>
        <mxCell id="c6nmPjCU_6RG-IFTGdHf-57" value="~InA" style="text;html=1;align=center;verticalAlign=middle;resizable=0;points=[];autosize=1;strokeColor=none;fillColor=none;" vertex="1" parent="1">
          <mxGeometry x="510" y="210" width="40" height="20" as="geometry" />
        </mxCell>
        <mxCell id="c6nmPjCU_6RG-IFTGdHf-61" value="" style="edgeStyle=orthogonalEdgeStyle;rounded=0;orthogonalLoop=1;jettySize=auto;html=1;" edge="1" parent="1" source="c6nmPjCU_6RG-IFTGdHf-62">
          <mxGeometry relative="1" as="geometry">
            <mxPoint x="600" y="260" as="targetPoint" />
            <Array as="points">
              <mxPoint x="600" y="240" />
              <mxPoint x="600" y="240" />
            </Array>
          </mxGeometry>
        </mxCell>
        <mxCell id="c6nmPjCU_6RG-IFTGdHf-62" value="InA" style="text;html=1;align=center;verticalAlign=middle;resizable=0;points=[];autosize=1;strokeColor=none;fillColor=none;" vertex="1" parent="1">
          <mxGeometry x="580" y="210" width="30" height="20" as="geometry" />
        </mxCell>
        <mxCell id="c6nmPjCU_6RG-IFTGdHf-63" value="" style="edgeStyle=orthogonalEdgeStyle;rounded=0;orthogonalLoop=1;jettySize=auto;html=1;" edge="1" parent="1" source="c6nmPjCU_6RG-IFTGdHf-64">
          <mxGeometry relative="1" as="geometry">
            <mxPoint x="750" y="260" as="targetPoint" />
            <Array as="points">
              <mxPoint x="750" y="240" />
              <mxPoint x="750" y="240" />
            </Array>
          </mxGeometry>
        </mxCell>
        <mxCell id="c6nmPjCU_6RG-IFTGdHf-64" value="~InB" style="text;html=1;align=center;verticalAlign=middle;resizable=0;points=[];autosize=1;strokeColor=none;fillColor=none;" vertex="1" parent="1">
          <mxGeometry x="720" y="210" width="40" height="20" as="geometry" />
        </mxCell>
        <mxCell id="c6nmPjCU_6RG-IFTGdHf-65" value="" style="edgeStyle=orthogonalEdgeStyle;rounded=0;orthogonalLoop=1;jettySize=auto;html=1;" edge="1" parent="1" source="c6nmPjCU_6RG-IFTGdHf-66">
          <mxGeometry relative="1" as="geometry">
            <mxPoint x="810" y="260" as="targetPoint" />
            <Array as="points">
              <mxPoint x="810" y="240" />
              <mxPoint x="810" y="240" />
            </Array>
          </mxGeometry>
        </mxCell>
        <mxCell id="c6nmPjCU_6RG-IFTGdHf-66" value="InB" style="text;html=1;align=center;verticalAlign=middle;resizable=0;points=[];autosize=1;strokeColor=none;fillColor=none;" vertex="1" parent="1">
          <mxGeometry x="785" y="210" width="30" height="20" as="geometry" />
        </mxCell>
        <mxCell id="c6nmPjCU_6RG-IFTGdHf-67" value="InAA | InBB" style="whiteSpace=wrap;html=1;" vertex="1" parent="1">
          <mxGeometry x="815" y="490" width="120" height="60" as="geometry" />
        </mxCell>
        <mxCell id="c6nmPjCU_6RG-IFTGdHf-68" value="InAA &amp;amp; InBB" style="whiteSpace=wrap;html=1;" vertex="1" parent="1">
          <mxGeometry x="800" y="600" width="120" height="60" as="geometry" />
        </mxCell>
        <mxCell id="c6nmPjCU_6RG-IFTGdHf-69" value="InAA ^ InBB" style="whiteSpace=wrap;html=1;" vertex="1" parent="1">
          <mxGeometry x="850" y="380" width="120" height="60" as="geometry" />
        </mxCell>
        <mxCell id="c6nmPjCU_6RG-IFTGdHf-71" value="" style="endArrow=classic;html=1;rounded=0;entryX=0;entryY=0.25;entryDx=0;entryDy=0;exitX=0.542;exitY=1.083;exitDx=0;exitDy=0;exitPerimeter=0;" edge="1" parent="1" source="c6nmPjCU_6RG-IFTGdHf-41" target="c6nmPjCU_6RG-IFTGdHf-69">
          <mxGeometry width="50" height="50" relative="1" as="geometry">
            <mxPoint x="570" y="395" as="sourcePoint" />
            <mxPoint x="680" y="400" as="targetPoint" />
            <Array as="points">
              <mxPoint x="572" y="395" />
            </Array>
          </mxGeometry>
        </mxCell>
        <mxCell id="c6nmPjCU_6RG-IFTGdHf-76" value="" style="endArrow=classic;html=1;rounded=0;entryX=0;entryY=0.25;entryDx=0;entryDy=0;" edge="1" parent="1" target="c6nmPjCU_6RG-IFTGdHf-67">
          <mxGeometry width="50" height="50" relative="1" as="geometry">
            <mxPoint x="570" y="360" as="sourcePoint" />
            <mxPoint x="720" y="560" as="targetPoint" />
            <Array as="points">
              <mxPoint x="570" y="505" />
            </Array>
          </mxGeometry>
        </mxCell>
        <mxCell id="c6nmPjCU_6RG-IFTGdHf-77" value="" style="endArrow=classic;html=1;rounded=0;entryX=-0.023;entryY=0.174;entryDx=0;entryDy=0;entryPerimeter=0;exitX=0.568;exitY=1.15;exitDx=0;exitDy=0;exitPerimeter=0;" edge="1" parent="1" source="c6nmPjCU_6RG-IFTGdHf-41" target="c6nmPjCU_6RG-IFTGdHf-68">
          <mxGeometry width="50" height="50" relative="1" as="geometry">
            <mxPoint x="640" y="600" as="sourcePoint" />
            <mxPoint x="690" y="550" as="targetPoint" />
            <Array as="points">
              <mxPoint x="573" y="610" />
            </Array>
          </mxGeometry>
        </mxCell>
        <mxCell id="c6nmPjCU_6RG-IFTGdHf-78" value="" style="endArrow=classic;html=1;rounded=0;entryX=0;entryY=0.25;entryDx=0;entryDy=0;" edge="1" parent="1" target="c6nmPjCU_6RG-IFTGdHf-39">
          <mxGeometry width="50" height="50" relative="1" as="geometry">
            <mxPoint x="570" y="360" as="sourcePoint" />
            <mxPoint x="610" y="630" as="targetPoint" />
            <Array as="points">
              <mxPoint x="570" y="705" />
            </Array>
          </mxGeometry>
        </mxCell>
        <mxCell id="c6nmPjCU_6RG-IFTGdHf-79" value="" style="endArrow=classic;html=1;rounded=0;entryX=0;entryY=0.25;entryDx=0;entryDy=0;" edge="1" parent="1" target="c6nmPjCU_6RG-IFTGdHf-37">
          <mxGeometry width="50" height="50" relative="1" as="geometry">
            <mxPoint x="570" y="360" as="sourcePoint" />
            <mxPoint x="610" y="780" as="targetPoint" />
            <Array as="points">
              <mxPoint x="570" y="815" />
            </Array>
          </mxGeometry>
        </mxCell>
        <mxCell id="c6nmPjCU_6RG-IFTGdHf-80" value="" style="endArrow=classic;html=1;rounded=0;exitX=0.555;exitY=0.99;exitDx=0;exitDy=0;exitPerimeter=0;entryX=0;entryY=0.75;entryDx=0;entryDy=0;" edge="1" parent="1" source="c6nmPjCU_6RG-IFTGdHf-46" target="c6nmPjCU_6RG-IFTGdHf-69">
          <mxGeometry width="50" height="50" relative="1" as="geometry">
            <mxPoint x="780" y="470" as="sourcePoint" />
            <mxPoint x="830" y="420" as="targetPoint" />
            <Array as="points">
              <mxPoint x="782" y="425" />
            </Array>
          </mxGeometry>
        </mxCell>
        <mxCell id="c6nmPjCU_6RG-IFTGdHf-81" value="" style="endArrow=classic;html=1;rounded=0;entryX=0;entryY=0.75;entryDx=0;entryDy=0;" edge="1" parent="1" target="c6nmPjCU_6RG-IFTGdHf-67">
          <mxGeometry width="50" height="50" relative="1" as="geometry">
            <mxPoint x="780" y="360" as="sourcePoint" />
            <mxPoint x="790" y="450" as="targetPoint" />
            <Array as="points">
              <mxPoint x="780" y="535" />
            </Array>
          </mxGeometry>
        </mxCell>
        <mxCell id="c6nmPjCU_6RG-IFTGdHf-82" value="" style="endArrow=classic;html=1;rounded=0;entryX=-0.021;entryY=0.703;entryDx=0;entryDy=0;entryPerimeter=0;exitX=0.46;exitY=1.014;exitDx=0;exitDy=0;exitPerimeter=0;" edge="1" parent="1" source="c6nmPjCU_6RG-IFTGdHf-46" target="c6nmPjCU_6RG-IFTGdHf-68">
          <mxGeometry width="50" height="50" relative="1" as="geometry">
            <mxPoint x="730" y="590" as="sourcePoint" />
            <mxPoint x="780" y="540" as="targetPoint" />
            <Array as="points">
              <mxPoint x="778" y="642" />
            </Array>
          </mxGeometry>
        </mxCell>
        <mxCell id="c6nmPjCU_6RG-IFTGdHf-83" value="" style="endArrow=classic;html=1;rounded=0;entryX=0;entryY=0.75;entryDx=0;entryDy=0;" edge="1" parent="1" source="c6nmPjCU_6RG-IFTGdHf-46" target="c6nmPjCU_6RG-IFTGdHf-39">
          <mxGeometry width="50" height="50" relative="1" as="geometry">
            <mxPoint x="650" y="500" as="sourcePoint" />
            <mxPoint x="700" y="450" as="targetPoint" />
            <Array as="points">
              <mxPoint x="726" y="350" />
              <mxPoint x="610" y="350" />
              <mxPoint x="610" y="735" />
            </Array>
          </mxGeometry>
        </mxCell>
        <mxCell id="c6nmPjCU_6RG-IFTGdHf-84" value="" style="endArrow=classic;html=1;rounded=0;entryX=0;entryY=0.75;entryDx=0;entryDy=0;" edge="1" parent="1" target="c6nmPjCU_6RG-IFTGdHf-37">
          <mxGeometry width="50" height="50" relative="1" as="geometry">
            <mxPoint x="750" y="350" as="sourcePoint" />
            <mxPoint x="700" y="550" as="targetPoint" />
            <Array as="points">
              <mxPoint x="590" y="350" />
              <mxPoint x="590" y="845" />
            </Array>
          </mxGeometry>
        </mxCell>
        <mxCell id="c6nmPjCU_6RG-IFTGdHf-85" value="Oper[2:0]" style="text;html=1;align=center;verticalAlign=middle;resizable=0;points=[];autosize=1;strokeColor=none;fillColor=none;" vertex="1" parent="1">
          <mxGeometry x="335" y="350" width="70" height="20" as="geometry" />
        </mxCell>
        <mxCell id="c6nmPjCU_6RG-IFTGdHf-87" value="" style="endArrow=none;html=1;rounded=0;exitX=1.038;exitY=0.5;exitDx=0;exitDy=0;exitPerimeter=0;strokeWidth=6;" edge="1" parent="1" source="c6nmPjCU_6RG-IFTGdHf-85">
          <mxGeometry width="50" height="50" relative="1" as="geometry">
            <mxPoint x="420" y="410" as="sourcePoint" />
            <mxPoint x="470" y="360" as="targetPoint" />
          </mxGeometry>
        </mxCell>
        <mxCell id="c6nmPjCU_6RG-IFTGdHf-89" value="" style="endArrow=classic;html=1;rounded=0;strokeWidth=1;entryX=-0.05;entryY=0.5;entryDx=0;entryDy=0;entryPerimeter=0;" edge="1" parent="1" target="c6nmPjCU_6RG-IFTGdHf-18">
          <mxGeometry width="50" height="50" relative="1" as="geometry">
            <mxPoint x="470" y="360" as="sourcePoint" />
            <mxPoint x="690" y="460" as="targetPoint" />
            <Array as="points">
              <mxPoint x="470" y="470" />
            </Array>
          </mxGeometry>
        </mxCell>
        <mxCell id="c6nmPjCU_6RG-IFTGdHf-91" value="" style="endArrow=classic;html=1;rounded=0;strokeWidth=1;entryX=-0.05;entryY=0.5;entryDx=0;entryDy=0;entryPerimeter=0;" edge="1" parent="1">
          <mxGeometry width="50" height="50" relative="1" as="geometry">
            <mxPoint x="470" y="470" as="sourcePoint" />
            <mxPoint x="850" y="580" as="targetPoint" />
            <Array as="points">
              <mxPoint x="470" y="530" />
              <mxPoint x="470" y="580" />
            </Array>
          </mxGeometry>
        </mxCell>
        <mxCell id="c6nmPjCU_6RG-IFTGdHf-92" value="" style="endArrow=classic;html=1;rounded=0;strokeWidth=1;entryX=-0.05;entryY=0.5;entryDx=0;entryDy=0;entryPerimeter=0;" edge="1" parent="1">
          <mxGeometry width="50" height="50" relative="1" as="geometry">
            <mxPoint x="470" y="580" as="sourcePoint" />
            <mxPoint x="790" y="680" as="targetPoint" />
            <Array as="points">
              <mxPoint x="470" y="680" />
            </Array>
          </mxGeometry>
        </mxCell>
        <mxCell id="c6nmPjCU_6RG-IFTGdHf-93" value="" style="endArrow=classic;html=1;rounded=0;strokeWidth=1;entryX=-0.05;entryY=0.5;entryDx=0;entryDy=0;entryPerimeter=0;" edge="1" parent="1">
          <mxGeometry width="50" height="50" relative="1" as="geometry">
            <mxPoint x="470" y="680" as="sourcePoint" />
            <mxPoint x="790" y="780" as="targetPoint" />
            <Array as="points">
              <mxPoint x="470" y="780" />
            </Array>
          </mxGeometry>
        </mxCell>
        <mxCell id="c6nmPjCU_6RG-IFTGdHf-94" value="" style="endArrow=classic;html=1;rounded=0;strokeWidth=1;entryX=0;entryY=0.5;entryDx=0;entryDy=0;" edge="1" parent="1" target="c6nmPjCU_6RG-IFTGdHf-37">
          <mxGeometry width="50" height="50" relative="1" as="geometry">
            <mxPoint x="470" y="780" as="sourcePoint" />
            <mxPoint x="540" y="810" as="targetPoint" />
            <Array as="points">
              <mxPoint x="470" y="830" />
            </Array>
          </mxGeometry>
        </mxCell>
        <mxCell id="c6nmPjCU_6RG-IFTGdHf-95" value="Oper[1:0]" style="text;html=1;align=center;verticalAlign=middle;resizable=0;points=[];autosize=1;strokeColor=none;fillColor=none;" vertex="1" parent="1">
          <mxGeometry x="485" y="810" width="70" height="20" as="geometry" />
        </mxCell>
        <mxCell id="c6nmPjCU_6RG-IFTGdHf-96" value="" style="endArrow=classic;html=1;rounded=0;strokeWidth=1;entryX=0;entryY=0.5;entryDx=0;entryDy=0;" edge="1" parent="1" target="c6nmPjCU_6RG-IFTGdHf-39">
          <mxGeometry width="50" height="50" relative="1" as="geometry">
            <mxPoint x="510" y="720" as="sourcePoint" />
            <mxPoint x="740" y="590" as="targetPoint" />
          </mxGeometry>
        </mxCell>
        <mxCell id="c6nmPjCU_6RG-IFTGdHf-97" value="Cin" style="text;html=1;align=center;verticalAlign=middle;resizable=0;points=[];autosize=1;strokeColor=none;fillColor=none;" vertex="1" parent="1">
          <mxGeometry x="505" y="700" width="30" height="20" as="geometry" />
        </mxCell>
        <mxCell id="c6nmPjCU_6RG-IFTGdHf-98" value="" style="endArrow=classic;html=1;rounded=0;strokeWidth=1;exitX=1;exitY=0.25;exitDx=0;exitDy=0;" edge="1" parent="1" source="c6nmPjCU_6RG-IFTGdHf-39">
          <mxGeometry width="50" height="50" relative="1" as="geometry">
            <mxPoint x="480" y="1020" as="sourcePoint" />
            <mxPoint x="810" y="705" as="targetPoint" />
          </mxGeometry>
        </mxCell>
        <mxCell id="c6nmPjCU_6RG-IFTGdHf-99" value="shifter_out" style="text;html=1;align=center;verticalAlign=middle;resizable=0;points=[];autosize=1;strokeColor=none;fillColor=none;" vertex="1" parent="1">
          <mxGeometry x="805" y="690" width="70" height="20" as="geometry" />
        </mxCell>
        <mxCell id="c6nmPjCU_6RG-IFTGdHf-100" value=".ShAmt(InBB[3:0])" style="text;html=1;align=center;verticalAlign=middle;resizable=0;points=[];autosize=1;strokeColor=none;fillColor=none;" vertex="1" parent="1">
          <mxGeometry x="505" y="850" width="110" height="20" as="geometry" />
        </mxCell>
        <mxCell id="c6nmPjCU_6RG-IFTGdHf-102" value="" style="verticalLabelPosition=bottom;shadow=0;dashed=0;align=center;html=1;verticalAlign=top;shape=mxgraph.electrical.logic_gates.logic_gate;operation=and;" vertex="1" parent="1">
          <mxGeometry x="405" y="1030" width="100" height="60" as="geometry" />
        </mxCell>
        <mxCell id="c6nmPjCU_6RG-IFTGdHf-103" value="sign == 1&#39;b1" style="text;html=1;align=center;verticalAlign=middle;resizable=0;points=[];autosize=1;strokeColor=none;fillColor=none;" vertex="1" parent="1">
          <mxGeometry x="450" y="1100" width="80" height="20" as="geometry" />
        </mxCell>
        <mxCell id="c6nmPjCU_6RG-IFTGdHf-105" value="InAA[15] == InBB[15]" style="text;html=1;align=center;verticalAlign=middle;resizable=0;points=[];autosize=1;strokeColor=none;fillColor=none;" vertex="1" parent="1">
          <mxGeometry x="275" y="1030" width="130" height="20" as="geometry" />
        </mxCell>
        <mxCell id="c6nmPjCU_6RG-IFTGdHf-106" value="(InAA[15] != cla_16b_out[15]" style="text;html=1;align=center;verticalAlign=middle;resizable=0;points=[];autosize=1;strokeColor=none;fillColor=none;" vertex="1" parent="1">
          <mxGeometry x="230" y="1060" width="170" height="20" as="geometry" />
        </mxCell>
        <mxCell id="c6nmPjCU_6RG-IFTGdHf-111" value="" style="verticalLabelPosition=bottom;shadow=0;dashed=0;align=center;html=1;verticalAlign=top;shape=mxgraph.electrical.logic_gates.logic_gate;operation=or;" vertex="1" parent="1">
          <mxGeometry x="660" y="1100" width="100" height="60" as="geometry" />
        </mxCell>
        <mxCell id="c6nmPjCU_6RG-IFTGdHf-112" value="" style="verticalLabelPosition=bottom;shadow=0;dashed=0;align=center;html=1;verticalAlign=top;shape=mxgraph.electrical.logic_gates.logic_gate;operation=and;" vertex="1" parent="1">
          <mxGeometry x="395" y="1160" width="100" height="60" as="geometry" />
        </mxCell>
        <mxCell id="c6nmPjCU_6RG-IFTGdHf-114" value="sign == 1&#39;b0" style="text;html=1;align=center;verticalAlign=middle;resizable=0;points=[];autosize=1;strokeColor=none;fillColor=none;rounded=0;" vertex="1" parent="1">
          <mxGeometry x="315" y="1160" width="80" height="20" as="geometry" />
        </mxCell>
        <mxCell id="c6nmPjCU_6RG-IFTGdHf-115" value="c_out == 1&#39;b1)" style="text;html=1;align=center;verticalAlign=middle;resizable=0;points=[];autosize=1;strokeColor=none;fillColor=none;" vertex="1" parent="1">
          <mxGeometry x="305" y="1190" width="90" height="20" as="geometry" />
        </mxCell>
        <mxCell id="c6nmPjCU_6RG-IFTGdHf-116" value="" style="endArrow=none;html=1;rounded=0;exitX=1;exitY=0.5;exitDx=0;exitDy=0;exitPerimeter=0;entryX=0;entryY=0.75;entryDx=0;entryDy=0;entryPerimeter=0;" edge="1" parent="1" source="c6nmPjCU_6RG-IFTGdHf-112" target="c6nmPjCU_6RG-IFTGdHf-111">
          <mxGeometry width="50" height="50" relative="1" as="geometry">
            <mxPoint x="470" y="1140" as="sourcePoint" />
            <mxPoint x="520" y="1090" as="targetPoint" />
            <Array as="points">
              <mxPoint x="495" y="1145" />
            </Array>
          </mxGeometry>
        </mxCell>
        <mxCell id="c6nmPjCU_6RG-IFTGdHf-118" value="" style="verticalLabelPosition=bottom;shadow=0;dashed=0;align=center;html=1;verticalAlign=top;shape=mxgraph.electrical.logic_gates.logic_gate;operation=and;" vertex="1" parent="1">
          <mxGeometry x="530" y="1070" width="100" height="60" as="geometry" />
        </mxCell>
        <mxCell id="c6nmPjCU_6RG-IFTGdHf-120" value="" style="endArrow=none;html=1;rounded=0;exitX=1;exitY=0.5;exitDx=0;exitDy=0;exitPerimeter=0;entryX=0;entryY=0.25;entryDx=0;entryDy=0;entryPerimeter=0;" edge="1" parent="1" source="c6nmPjCU_6RG-IFTGdHf-102" target="c6nmPjCU_6RG-IFTGdHf-118">
          <mxGeometry width="50" height="50" relative="1" as="geometry">
            <mxPoint x="520" y="1080" as="sourcePoint" />
            <mxPoint x="570" y="1030" as="targetPoint" />
            <Array as="points">
              <mxPoint x="530" y="1060" />
            </Array>
          </mxGeometry>
        </mxCell>
        <mxCell id="c6nmPjCU_6RG-IFTGdHf-121" value="" style="endArrow=none;html=1;rounded=0;exitX=1;exitY=0.5;exitDx=0;exitDy=0;exitPerimeter=0;entryX=0.029;entryY=0.253;entryDx=0;entryDy=0;entryPerimeter=0;" edge="1" parent="1" source="c6nmPjCU_6RG-IFTGdHf-118" target="c6nmPjCU_6RG-IFTGdHf-111">
          <mxGeometry width="50" height="50" relative="1" as="geometry">
            <mxPoint x="630" y="1090" as="sourcePoint" />
            <mxPoint x="680" y="1040" as="targetPoint" />
            <Array as="points">
              <mxPoint x="630" y="1115" />
            </Array>
          </mxGeometry>
        </mxCell>
        <mxCell id="c6nmPjCU_6RG-IFTGdHf-122" value="Ofl" style="text;html=1;align=center;verticalAlign=middle;resizable=0;points=[];autosize=1;strokeColor=none;fillColor=none;" vertex="1" parent="1">
          <mxGeometry x="760" y="1120" width="30" height="20" as="geometry" />
        </mxCell>
        <mxCell id="c6nmPjCU_6RG-IFTGdHf-123" value="" style="endArrow=classic;html=1;rounded=0;" edge="1" parent="1">
          <mxGeometry width="50" height="50" relative="1" as="geometry">
            <mxPoint x="570" y="360" as="sourcePoint" />
            <mxPoint x="310" y="1030" as="targetPoint" />
            <Array as="points">
              <mxPoint x="570" y="440" />
              <mxPoint x="310" y="440" />
            </Array>
          </mxGeometry>
        </mxCell>
        <mxCell id="c6nmPjCU_6RG-IFTGdHf-124" value="" style="endArrow=classic;html=1;rounded=0;entryX=0.107;entryY=0;entryDx=0;entryDy=0;entryPerimeter=0;" edge="1" parent="1" source="c6nmPjCU_6RG-IFTGdHf-41" target="c6nmPjCU_6RG-IFTGdHf-106">
          <mxGeometry width="50" height="50" relative="1" as="geometry">
            <mxPoint x="210" y="650" as="sourcePoint" />
            <mxPoint x="260" y="600" as="targetPoint" />
            <Array as="points">
              <mxPoint x="570" y="420" />
              <mxPoint x="248" y="420" />
            </Array>
          </mxGeometry>
        </mxCell>
        <mxCell id="c6nmPjCU_6RG-IFTGdHf-125" value="" style="endArrow=classic;html=1;rounded=0;exitX=0.548;exitY=0.943;exitDx=0;exitDy=0;exitPerimeter=0;" edge="1" parent="1" source="c6nmPjCU_6RG-IFTGdHf-41" target="c6nmPjCU_6RG-IFTGdHf-114">
          <mxGeometry width="50" height="50" relative="1" as="geometry">
            <mxPoint x="130" y="1020" as="sourcePoint" />
            <mxPoint x="180" y="970" as="targetPoint" />
            <Array as="points">
              <mxPoint x="572" y="390" />
              <mxPoint x="220" y="390" />
              <mxPoint x="220" y="1170" />
            </Array>
          </mxGeometry>
        </mxCell>
        <mxCell id="c6nmPjCU_6RG-IFTGdHf-126" value="" style="endArrow=classic;html=1;rounded=0;" edge="1" parent="1" target="c6nmPjCU_6RG-IFTGdHf-115">
          <mxGeometry width="50" height="50" relative="1" as="geometry">
            <mxPoint x="570" y="380" as="sourcePoint" />
            <mxPoint x="255" y="1200" as="targetPoint" />
            <Array as="points">
              <mxPoint x="525" y="380" />
              <mxPoint x="155" y="380" />
              <mxPoint x="155" y="1200" />
            </Array>
          </mxGeometry>
        </mxCell>
        <mxCell id="c6nmPjCU_6RG-IFTGdHf-127" value="" style="endArrow=none;html=1;rounded=0;strokeWidth=1;" edge="1" parent="1">
          <mxGeometry width="50" height="50" relative="1" as="geometry">
            <mxPoint x="570" y="400" as="sourcePoint" />
            <mxPoint x="570" y="360" as="targetPoint" />
          </mxGeometry>
        </mxCell>
        <mxCell id="c6nmPjCU_6RG-IFTGdHf-128" value="" style="endArrow=none;html=1;rounded=0;strokeWidth=1;" edge="1" parent="1">
          <mxGeometry width="50" height="50" relative="1" as="geometry">
            <mxPoint x="780" y="460" as="sourcePoint" />
            <mxPoint x="779.7" y="360" as="targetPoint" />
          </mxGeometry>
        </mxCell>
        <mxCell id="c6nmPjCU_6RG-IFTGdHf-131" value="" style="endArrow=classic;html=1;rounded=0;strokeWidth=1;entryX=0.644;entryY=-0.126;entryDx=0;entryDy=0;entryPerimeter=0;" edge="1" parent="1" target="c6nmPjCU_6RG-IFTGdHf-105">
          <mxGeometry width="50" height="50" relative="1" as="geometry">
            <mxPoint x="780" y="410" as="sourcePoint" />
            <mxPoint x="410" y="950" as="targetPoint" />
            <Array as="points">
              <mxPoint x="360" y="410" />
            </Array>
          </mxGeometry>
        </mxCell>
        <mxCell id="c6nmPjCU_6RG-IFTGdHf-132" value="" style="endArrow=classic;html=1;rounded=0;strokeWidth=1;entryX=0.233;entryY=-0.069;entryDx=0;entryDy=0;entryPerimeter=0;" edge="1" parent="1" target="c6nmPjCU_6RG-IFTGdHf-106">
          <mxGeometry width="50" height="50" relative="1" as="geometry">
            <mxPoint x="780" y="430" as="sourcePoint" />
            <mxPoint x="180" y="660" as="targetPoint" />
            <Array as="points">
              <mxPoint x="270" y="430" />
            </Array>
          </mxGeometry>
        </mxCell>
        <mxCell id="c6nmPjCU_6RG-IFTGdHf-133" value="" style="endArrow=classic;html=1;rounded=0;strokeWidth=1;entryX=0.932;entryY=0.03;entryDx=0;entryDy=0;entryPerimeter=0;" edge="1" parent="1" target="c6nmPjCU_6RG-IFTGdHf-114">
          <mxGeometry width="50" height="50" relative="1" as="geometry">
            <mxPoint x="780" y="420" as="sourcePoint" />
            <mxPoint x="100" y="970" as="targetPoint" />
            <Array as="points">
              <mxPoint x="780" y="460" />
              <mxPoint x="390" y="460" />
            </Array>
          </mxGeometry>
        </mxCell>
        <mxCell id="c6nmPjCU_6RG-IFTGdHf-134" value="" style="endArrow=classic;html=1;rounded=0;strokeWidth=1;entryX=0.356;entryY=0.061;entryDx=0;entryDy=0;entryPerimeter=0;" edge="1" parent="1" target="c6nmPjCU_6RG-IFTGdHf-115">
          <mxGeometry width="50" height="50" relative="1" as="geometry">
            <mxPoint x="780" y="450" as="sourcePoint" />
            <mxPoint x="310" y="1280" as="targetPoint" />
            <Array as="points">
              <mxPoint x="340" y="450" />
            </Array>
          </mxGeometry>
        </mxCell>
        <mxCell id="c6nmPjCU_6RG-IFTGdHf-135" value="InAA" style="text;html=1;align=center;verticalAlign=middle;resizable=0;points=[];autosize=1;strokeColor=none;fillColor=none;" vertex="1" parent="1">
          <mxGeometry x="220" y="1180" width="40" height="20" as="geometry" />
        </mxCell>
        <mxCell id="c6nmPjCU_6RG-IFTGdHf-136" value="InAA" style="text;html=1;align=center;verticalAlign=middle;resizable=0;points=[];autosize=1;strokeColor=none;fillColor=none;" vertex="1" parent="1">
          <mxGeometry x="230" y="1148" width="40" height="20" as="geometry" />
        </mxCell>
        <mxCell id="c6nmPjCU_6RG-IFTGdHf-137" value="InAA" style="text;html=1;align=center;verticalAlign=middle;resizable=0;points=[];autosize=1;strokeColor=none;fillColor=none;rotation=270;" vertex="1" parent="1">
          <mxGeometry x="220" y="1010" width="40" height="20" as="geometry" />
        </mxCell>
        <mxCell id="c6nmPjCU_6RG-IFTGdHf-139" value="InBB" style="text;html=1;align=center;verticalAlign=middle;resizable=0;points=[];autosize=1;strokeColor=none;fillColor=none;rotation=270;" vertex="1" parent="1">
          <mxGeometry x="240" y="990" width="40" height="20" as="geometry" />
        </mxCell>
        <mxCell id="c6nmPjCU_6RG-IFTGdHf-140" value="InAA" style="text;html=1;align=center;verticalAlign=middle;resizable=0;points=[];autosize=1;strokeColor=none;fillColor=none;rotation=270;" vertex="1" parent="1">
          <mxGeometry x="280" y="950" width="40" height="20" as="geometry" />
        </mxCell>
        <mxCell id="c6nmPjCU_6RG-IFTGdHf-141" value="InBB" style="text;html=1;align=center;verticalAlign=middle;resizable=0;points=[];autosize=1;strokeColor=none;fillColor=none;rotation=270;" vertex="1" parent="1">
          <mxGeometry x="330" y="950" width="40" height="20" as="geometry" />
        </mxCell>
        <mxCell id="c6nmPjCU_6RG-IFTGdHf-142" value="InBB" style="text;html=1;align=center;verticalAlign=middle;resizable=0;points=[];autosize=1;strokeColor=none;fillColor=none;rotation=270;" vertex="1" parent="1">
          <mxGeometry x="355" y="1100" width="40" height="20" as="geometry" />
        </mxCell>
        <mxCell id="c6nmPjCU_6RG-IFTGdHf-143" value="InAA" style="text;html=1;align=center;verticalAlign=middle;resizable=0;points=[];autosize=1;strokeColor=none;fillColor=none;rotation=270;" vertex="1" parent="1">
          <mxGeometry x="305" y="1120" width="40" height="20" as="geometry" />
        </mxCell>
        <mxCell id="c6nmPjCU_6RG-IFTGdHf-147" value="" style="edgeStyle=orthogonalEdgeStyle;rounded=0;orthogonalLoop=1;jettySize=auto;html=1;strokeWidth=1;" edge="1" parent="1" source="c6nmPjCU_6RG-IFTGdHf-145" target="c6nmPjCU_6RG-IFTGdHf-146">
          <mxGeometry relative="1" as="geometry" />
        </mxCell>
        <mxCell id="c6nmPjCU_6RG-IFTGdHf-145" value="bit-wise OR" style="rounded=0;whiteSpace=wrap;html=1;" vertex="1" parent="1">
          <mxGeometry x="1060" y="950" width="120" height="60" as="geometry" />
        </mxCell>
        <mxCell id="c6nmPjCU_6RG-IFTGdHf-149" value="" style="edgeStyle=orthogonalEdgeStyle;rounded=0;orthogonalLoop=1;jettySize=auto;html=1;strokeWidth=1;" edge="1" parent="1" source="c6nmPjCU_6RG-IFTGdHf-146" target="c6nmPjCU_6RG-IFTGdHf-148">
          <mxGeometry relative="1" as="geometry" />
        </mxCell>
        <mxCell id="c6nmPjCU_6RG-IFTGdHf-146" value="bit-wise NOT" style="rounded=0;whiteSpace=wrap;html=1;" vertex="1" parent="1">
          <mxGeometry x="1240" y="950" width="120" height="60" as="geometry" />
        </mxCell>
        <mxCell id="c6nmPjCU_6RG-IFTGdHf-148" value="Zero" style="text;html=1;align=center;verticalAlign=middle;resizable=0;points=[];autosize=1;strokeColor=none;fillColor=none;" vertex="1" parent="1">
          <mxGeometry x="1430" y="970" width="40" height="20" as="geometry" />
        </mxCell>
        <mxCell id="c6nmPjCU_6RG-IFTGdHf-151" value="" style="endArrow=classic;html=1;rounded=0;strokeWidth=1;entryX=0.558;entryY=1.265;entryDx=0;entryDy=0;entryPerimeter=0;exitX=1;exitY=0.75;exitDx=0;exitDy=0;" edge="1" parent="1" source="c6nmPjCU_6RG-IFTGdHf-39" target="c6nmPjCU_6RG-IFTGdHf-115">
          <mxGeometry width="50" height="50" relative="1" as="geometry">
            <mxPoint x="520" y="1520" as="sourcePoint" />
            <mxPoint x="370" y="1260" as="targetPoint" />
            <Array as="points">
              <mxPoint x="840" y="735" />
              <mxPoint x="840" y="1360" />
              <mxPoint x="355" y="1360" />
            </Array>
          </mxGeometry>
        </mxCell>
        <mxCell id="c6nmPjCU_6RG-IFTGdHf-152" value="c_out" style="text;html=1;align=center;verticalAlign=middle;resizable=0;points=[];autosize=1;strokeColor=none;fillColor=none;" vertex="1" parent="1">
          <mxGeometry x="400" y="1340" width="40" height="20" as="geometry" />
        </mxCell>
      </root>
    </mxGraphModel>
  </diagram>
</mxfile>
